<?xml version="1.0" encoding="utf-8"?>
<!-- Generator: Adobe Illustrator 24.0.1, SVG Export Plug-In . SVG Version: 6.00 Build 0)  -->
<svg version="1.1" id="레이어_1" xmlns="http://www.w3.org/2000/svg" xmlns:xlink="http://www.w3.org/1999/xlink" x="0px"
	 y="0px" viewBox="0 0 166.9 42.2" style="enable-background:new 0 0 166.9 42.2;" xml:space="preserve">
<style type="text/css">
	.st0{fill:#FF7C48;}
</style>
<path d="M9.9,29.3v12.9h1.8V29.3H9.9z M7.3,33.7H5.7v1.5h1.6v6.5H9V29.5H7.3V33.7z M4.7,30.4H2.9v2.2c0,2.2-0.7,4.5-2.6,5.7l1.1,1.4
	c1.2-0.7,1.9-1.9,2.4-3.4c0.4,1.3,1.1,2.4,2.2,3.1l1-1.4c-1.8-1.2-2.3-3.3-2.3-5.4V30.4z M20,39.2v-2.6h3.7v-6.3h-9.2v6.3h3.7v2.6
	h-4.9v1.5H25v-1.5H20z M16.3,31.7h5.6v3.4h-5.6V31.7z M36.7,29.3h-1.9v9.3h1.9V29.3z M33.2,33.4c0-1.9-1.5-3.3-3.5-3.3
	s-3.5,1.4-3.5,3.3c0,1.9,1.5,3.3,3.5,3.3S33.2,35.3,33.2,33.4z M27.9,33.4c0-1.1,0.8-1.7,1.7-1.7c1,0,1.7,0.6,1.7,1.7
	c0,1.1-0.7,1.7-1.7,1.7C28.7,35.1,27.9,34.5,27.9,33.4z M29.9,40.5v-2.8h-1.8V42H37v-1.5H29.9z M44,32.6h-2v2h2V32.6z M44,38.2h-2v2
	h2V38.2z M57.7,29.3v12.9h1.8V29.3H57.7z M55.1,33.7h-1.6v1.5h1.6v6.5h1.7V29.5h-1.7V33.7z M52.5,30.4h-1.8v2.2
	c0,2.2-0.7,4.5-2.6,5.7l1.1,1.4c1.2-0.7,1.9-1.9,2.4-3.4c0.4,1.3,1.1,2.4,2.2,3.1l1-1.4c-1.8-1.2-2.3-3.3-2.3-5.4V30.4z M71.2,32.3
	v-3h-1.8v7.6h1.8v-3.1H73v-1.5H71.2z M68.7,35c-2-0.6-2.9-2.1-2.9-3.7V30h-1.9v1.2c0,1.8-0.9,3.5-3,4.2l1,1.5c1.5-0.5,2.5-1.5,3-2.8
	c0.5,1.1,1.5,2,2.8,2.4L68.7,35z M67,37.2c-2.7,0-4.4,0.9-4.4,2.5c0,1.6,1.7,2.5,4.4,2.5c2.7,0,4.4-0.9,4.4-2.5
	C71.4,38.2,69.7,37.2,67,37.2z M67,40.8c-1.7,0-2.5-0.4-2.5-1.1c0-0.7,0.8-1.1,2.5-1.1c1.6,0,2.5,0.3,2.5,1.1
	C69.6,40.4,68.7,40.8,67,40.8z M82.7,29.3v12.9h1.8V29.3H82.7z M77.9,30.2c-2,0-3.5,1.3-3.5,3.2s1.5,3.2,3.5,3.2
	c2,0,3.6-1.3,3.6-3.2S79.9,30.2,77.9,30.2z M77.9,31.7c1,0,1.8,0.6,1.8,1.6s-0.7,1.6-1.8,1.6c-1,0-1.8-0.6-1.8-1.6
	S76.9,31.7,77.9,31.7z M74.1,39.6c2.2,0,5.3,0,8-0.6L82,37.7c-2.7,0.4-5.9,0.4-8.1,0.4L74.1,39.6z M96.2,39.2v-2.6h3.7v-6.3h-9.2
	v6.3h3.7v2.6h-4.9v1.5h11.7v-1.5H96.2z M92.5,31.7H98v3.4h-5.6V31.7z M112.5,33.2h-7.1v-1.9h7v-1.5h-8.9v4.9h9V33.2z M102.1,35.7
	v1.5h11.7v-1.5H102.1z M105.3,38.1h-1.8V42h9.1v-1.5h-7.3V38.1z M128.5,29.3h-1.9v9.3h1.9V29.3z M124.9,33.4c0-1.9-1.5-3.3-3.5-3.3
	s-3.5,1.4-3.5,3.3c0,1.9,1.5,3.3,3.5,3.3S124.9,35.3,124.9,33.4z M119.7,33.4c0-1.1,0.8-1.7,1.7-1.7c1,0,1.7,0.6,1.7,1.7
	c0,1.1-0.7,1.7-1.7,1.7C120.5,35.1,119.7,34.5,119.7,33.4z M121.7,40.5v-2.8h-1.8V42h8.9v-1.5H121.7z M139.4,29.3v4.5h-2.2v1.5h2.2
	v6.9h1.8V29.3H139.4z M132.9,35.4h3.7V34h-3.7v-2.1h4.1v-1.5h-6v8.9h1.1c2.2,0,3.8,0,5.7-0.3l-0.2-1.5c-1.6,0.3-3,0.3-4.7,0.3V35.4z
	 M152.4,29.3v8h1.8v-8H152.4z M149.7,37.3h1.7v-7.7h-1.7v2.8h-1.1v1.5h1.1V37.3z M149,35.1c-1.2,0.2-2.2,0.3-3.6,0.3v-1.2h2.8v-3.9
	h-4.6v1.4h2.8v1.1h-2.7v4h0.9c1.9,0,3.2,0,4.6-0.3L149,35.1z M145.3,39.3h6.9v2.9h1.8v-4.4h-8.8V39.3z M164.7,38.9h1.8v-9.5h-1.8V31
	h-2.1v1.5h2.1v1h-2.1V35h2.1V38.9z M163.5,35.8c-2.1-0.8-2.9-2.5-2.9-4.3V30h-1.9v1.5c0,1.8-0.9,3.7-3,4.4l1,1.4
	c1.5-0.5,2.4-1.6,3-2.9c0.5,1.2,1.4,2.2,2.8,2.8L163.5,35.8z M159.9,40.5V38h-1.8v4h8.8v-1.5H159.9z"/>
<path class="st0" d="M11.5,0l11,20H0L11.5,0z"/>
<rect x="24.5" class="st0" width="20" height="20"/>
<circle class="st0" cx="57.5" cy="10" r="10"/>
<path d="M35.9,17.8v-5.6h-2.1v5.6h-5.6v1.7h13.3v-1.7H35.9z"/>
<path d="M63.9,2.6v14.6H66V2.6H63.9z"/>
<path d="M54.3,18.1v-6h-2.1v7.7h9.5v-1.7H54.3z"/>
<path d="M19.4,2.6v14.6h2V2.6H19.4z M16.3,8.1h-2.1v1.7h2.1v6.9h2V2.9h-2V8.1z"/>
</svg>
